<svg width="29" height="33" viewBox="0 0 29 33" fill="none" xmlns="http://www.w3.org/2000/svg">
<path d="M12.3832 31.8343C12.8617 32.1729 13.4123 32.3959 13.9916 32.4856C14.5709 32.5755 15.1632 32.5297 15.7218 32.3519C16.2804 32.1741 16.7901 31.8692 17.211 31.4611C17.6318 31.053 17.9523 30.5529 18.1471 30H11C11.2609 30.7394 11.744 31.3801 12.3832 31.8343Z" fill="#F1F1F1"/>
<path d="M28.3153 25.2019C28.2063 25.0034 28.0461 24.8378 27.8512 24.7224L26.4552 23.8845C25.9103 23.5569 25.4595 23.0938 25.1466 22.5404C24.8336 21.987 24.6692 21.362 24.6692 20.7263V13.1749C24.6679 10.9844 23.9572 8.85329 22.6435 7.10049C21.3297 5.34766 19.4836 4.06747 17.3815 3.45154C17.2906 3.42566 17.2105 3.37105 17.1532 3.29588C17.096 3.22072 17.0646 3.12903 17.0638 3.03453C17.0638 2.36222 16.7967 1.71745 16.3213 1.24206C15.8458 0.766662 15.2011 0.499588 14.5288 0.499588C13.8565 0.499588 13.2117 0.766662 12.7363 1.24206C12.2609 1.71745 11.9938 2.36222 11.9938 3.03453C11.9929 3.129 11.9615 3.22064 11.9042 3.29578C11.8469 3.37093 11.7669 3.42557 11.6761 3.45154C9.57398 4.06747 7.72785 5.34766 6.4141 7.10049C5.10035 8.85329 4.38967 10.9844 4.38836 13.1749V20.725C4.38842 21.3607 4.22398 21.9857 3.91102 22.5391C3.59806 23.0925 3.14723 23.5556 2.60237 23.8832L1.20632 24.7211C0.965277 24.865 0.777808 25.0837 0.672414 25.3439C0.567014 25.6041 0.549451 25.8916 0.622386 26.1628C0.695328 26.4338 0.854772 26.6737 1.0765 26.8459C1.29824 27.0181 1.57013 27.1133 1.85085 27.1168H27.2028C27.425 27.1115 27.6422 27.0493 27.8335 26.936C28.0248 26.8228 28.1837 26.6623 28.2952 26.4699C28.4067 26.2776 28.4669 26.0599 28.47 25.8377C28.4732 25.6154 28.4193 25.396 28.3134 25.2006L28.3153 25.2019Z" fill="#F1F1F1"/>
</svg>
